<svg width="204" height="80" viewBox="0 0 204 80" fill="none" xmlns="http://www.w3.org/2000/svg">
<path d="M27.8994 1L57.3199 27.0101L49.7614 35.5596L30.6507 18.6642L19.7576 30.9856L38.8683 47.881L30.4206 57.4364L1.00011 31.4263L27.8994 1Z" fill="#FFFCFC"/>
<path d="M27.8994 1L57.3199 27.0101L49.7614 35.5596L30.6507 18.6642L19.7576 30.9856L38.8683 47.881L30.4206 57.4364L1.00011 31.4263L27.8994 1Z" stroke="#BFBFBF"/>
<path d="M27.8994 1L57.3199 27.0101L49.7614 35.5596L30.6507 18.6642L19.7576 30.9856L38.8683 47.881L30.4206 57.4364L1.00011 31.4263L27.8994 1Z" stroke="#BFBFBF"/>
<path d="M34.1006 78.6099L4.68012 52.5998L12.2386 44.0503L31.3493 60.9457L42.2424 48.6243L23.1317 31.7289L31.5794 22.1735L60.9999 48.1836L34.1006 78.6099Z" fill="#FFFCFC"/>
<path d="M34.1006 78.6099L4.68012 52.5998L12.2386 44.0503L31.3493 60.9457L42.2424 48.6243L23.1317 31.7289L31.5794 22.1735L60.9999 48.1836L34.1006 78.6099Z" stroke="#BFBFBF"/>
<path d="M34.1006 78.6099L4.68012 52.5998L12.2386 44.0503L31.3493 60.9457L42.2424 48.6243L23.1317 31.7289L31.5794 22.1735L60.9999 48.1836L34.1006 78.6099Z" stroke="#BFBFBF"/>
<path d="M84.06 36.245C82.2633 36.245 80.6533 35.9533 79.23 35.37C77.8067 34.7867 76.6633 33.9233 75.8 32.78C74.96 31.6367 74.5167 30.26 74.47 28.65H80.84C80.9333 29.56 81.2483 30.26 81.785 30.75C82.3217 31.2167 83.0217 31.45 83.885 31.45C84.7717 31.45 85.4717 31.2517 85.985 30.855C86.4983 30.435 86.755 29.8633 86.755 29.14C86.755 28.5333 86.545 28.0317 86.125 27.635C85.7283 27.2383 85.2267 26.9117 84.62 26.655C84.0367 26.3983 83.1967 26.1067 82.1 25.78C80.5133 25.29 79.2183 24.8 78.215 24.31C77.2117 23.82 76.3483 23.0967 75.625 22.14C74.9017 21.1833 74.54 19.935 74.54 18.395C74.54 16.1083 75.3683 14.3233 77.025 13.04C78.6817 11.7333 80.84 11.08 83.5 11.08C86.2067 11.08 88.3883 11.7333 90.045 13.04C91.7017 14.3233 92.5883 16.12 92.705 18.43H86.23C86.1833 17.6367 85.8917 17.0183 85.355 16.575C84.8183 16.1083 84.13 15.875 83.29 15.875C82.5667 15.875 81.9833 16.0733 81.54 16.47C81.0967 16.8433 80.875 17.3917 80.875 18.115C80.875 18.9083 81.2483 19.5267 81.995 19.97C82.7417 20.4133 83.9083 20.8917 85.495 21.405C87.0817 21.9417 88.365 22.455 89.345 22.945C90.3483 23.435 91.2117 24.1467 91.935 25.08C92.6583 26.0133 93.02 27.215 93.02 28.685C93.02 30.085 92.6583 31.3567 91.935 32.5C91.235 33.6433 90.2083 34.5533 88.855 35.23C87.5017 35.9067 85.9033 36.245 84.06 36.245ZM105.593 36.28C103.68 36.28 101.953 35.8717 100.413 35.055C98.8965 34.2383 97.6949 33.0717 96.8082 31.555C95.9449 30.0383 95.5132 28.265 95.5132 26.235C95.5132 24.2283 95.9565 22.4667 96.8432 20.95C97.7299 19.41 98.9432 18.2317 100.483 17.415C102.023 16.5983 103.75 16.19 105.663 16.19C107.577 16.19 109.303 16.5983 110.843 17.415C112.383 18.2317 113.597 19.41 114.483 20.95C115.37 22.4667 115.813 24.2283 115.813 26.235C115.813 28.2417 115.358 30.015 114.448 31.555C113.562 33.0717 112.337 34.2383 110.773 35.055C109.233 35.8717 107.507 36.28 105.593 36.28ZM105.593 31.1C106.737 31.1 107.705 30.68 108.498 29.84C109.315 29 109.723 27.7983 109.723 26.235C109.723 24.6717 109.327 23.47 108.533 22.63C107.763 21.79 106.807 21.37 105.663 21.37C104.497 21.37 103.528 21.79 102.758 22.63C101.988 23.4467 101.603 24.6483 101.603 26.235C101.603 27.7983 101.977 29 102.723 29.84C103.493 30.68 104.45 31.1 105.593 31.1ZM138.273 16.47V36H132.288V33.34C131.682 34.2033 130.853 34.9033 129.803 35.44C128.777 35.9533 127.633 36.21 126.373 36.21C124.88 36.21 123.562 35.8833 122.418 35.23C121.275 34.5533 120.388 33.585 119.758 32.325C119.128 31.065 118.813 29.5833 118.813 27.88V16.47H124.763V27.075C124.763 28.3817 125.102 29.3967 125.778 30.12C126.455 30.8433 127.365 31.205 128.508 31.205C129.675 31.205 130.597 30.8433 131.273 30.12C131.95 29.3967 132.288 28.3817 132.288 27.075V16.47H138.273ZM148.557 19.725C149.257 18.6517 150.132 17.8117 151.182 17.205C152.232 16.575 153.399 16.26 154.682 16.26V22.595H153.037C151.544 22.595 150.424 22.9217 149.677 23.575C148.931 24.205 148.557 25.325 148.557 26.935V36H142.572V16.47H148.557V19.725ZM156.353 26.235C156.353 24.205 156.761 22.4317 157.578 20.915C158.418 19.3983 159.573 18.2317 161.043 17.415C162.536 16.5983 164.24 16.19 166.153 16.19C168.603 16.19 170.645 16.8317 172.278 18.115C173.935 19.3983 175.02 21.2067 175.533 23.54H169.163C168.626 22.0467 167.588 21.3 166.048 21.3C164.951 21.3 164.076 21.7317 163.423 22.595C162.77 23.435 162.443 24.6483 162.443 26.235C162.443 27.8217 162.77 29.0467 163.423 29.91C164.076 30.75 164.951 31.17 166.048 31.17C167.588 31.17 168.626 30.4233 169.163 28.93H175.533C175.02 31.2167 173.935 33.0133 172.278 34.32C170.621 35.6267 168.58 36.28 166.153 36.28C164.24 36.28 162.536 35.8717 161.043 35.055C159.573 34.2383 158.418 33.0717 157.578 31.555C156.761 30.0383 156.353 28.265 156.353 26.235ZM197.144 25.92C197.144 26.48 197.109 27.0633 197.039 27.67H183.494C183.588 28.8833 183.973 29.8167 184.649 30.47C185.349 31.1 186.201 31.415 187.204 31.415C188.698 31.415 189.736 30.785 190.319 29.525H196.689C196.363 30.8083 195.768 31.9633 194.904 32.99C194.064 34.0167 193.003 34.8217 191.719 35.405C190.436 35.9883 189.001 36.28 187.414 36.28C185.501 36.28 183.798 35.8717 182.304 35.055C180.811 34.2383 179.644 33.0717 178.804 31.555C177.964 30.0383 177.544 28.265 177.544 26.235C177.544 24.205 177.953 22.4317 178.769 20.915C179.609 19.3983 180.776 18.2317 182.269 17.415C183.763 16.5983 185.478 16.19 187.414 16.19C189.304 16.19 190.984 16.5867 192.454 17.38C193.924 18.1733 195.068 19.305 195.884 20.775C196.724 22.245 197.144 23.96 197.144 25.92ZM191.019 24.345C191.019 23.3183 190.669 22.5017 189.969 21.895C189.269 21.2883 188.394 20.985 187.344 20.985C186.341 20.985 185.489 21.2767 184.789 21.86C184.113 22.4433 183.693 23.2717 183.529 24.345H191.019ZM74.365 68.205C75.1583 67.575 75.52 67.2833 75.45 67.33C77.7367 65.44 79.5333 63.8883 80.84 62.675C82.17 61.4617 83.29 60.19 84.2 58.86C85.11 57.53 85.565 56.235 85.565 54.975C85.565 54.0183 85.3433 53.2717 84.9 52.735C84.4567 52.1983 83.7917 51.93 82.905 51.93C82.0183 51.93 81.3183 52.2683 80.805 52.945C80.315 53.5983 80.07 54.5317 80.07 55.745H74.295C74.3417 53.7617 74.7617 52.105 75.555 50.775C76.3717 49.445 77.4333 48.465 78.74 47.835C80.07 47.205 81.54 46.89 83.15 46.89C85.9267 46.89 88.015 47.6017 89.415 49.025C90.8383 50.4483 91.55 52.3033 91.55 54.59C91.55 57.0867 90.6983 59.4083 88.995 61.555C87.2917 63.6783 85.1217 65.755 82.485 67.785H91.935V72.65H74.365V68.205ZM111.472 73.245C109.675 73.245 108.065 72.9533 106.642 72.37C105.219 71.7867 104.075 70.9233 103.212 69.78C102.372 68.6367 101.929 67.26 101.882 65.65H108.252C108.345 66.56 108.66 67.26 109.197 67.75C109.734 68.2167 110.434 68.45 111.297 68.45C112.184 68.45 112.884 68.2517 113.397 67.855C113.91 67.435 114.167 66.8633 114.167 66.14C114.167 65.5333 113.957 65.0317 113.537 64.635C113.14 64.2383 112.639 63.9117 112.032 63.655C111.449 63.3983 110.609 63.1067 109.512 62.78C107.925 62.29 106.63 61.8 105.627 61.31C104.624 60.82 103.76 60.0967 103.037 59.14C102.314 58.1833 101.952 56.935 101.952 55.395C101.952 53.1083 102.78 51.3233 104.437 50.04C106.094 48.7333 108.252 48.08 110.912 48.08C113.619 48.08 115.8 48.7333 117.457 50.04C119.114 51.3233 120 53.12 120.117 55.43H113.642C113.595 54.6367 113.304 54.0183 112.767 53.575C112.23 53.1083 111.542 52.875 110.702 52.875C109.979 52.875 109.395 53.0733 108.952 53.47C108.509 53.8433 108.287 54.3917 108.287 55.115C108.287 55.9083 108.66 56.5267 109.407 56.97C110.154 57.4133 111.32 57.8917 112.907 58.405C114.494 58.9417 115.777 59.455 116.757 59.945C117.76 60.435 118.624 61.1467 119.347 62.08C120.07 63.0133 120.432 64.215 120.432 65.685C120.432 67.085 120.07 68.3567 119.347 69.5C118.647 70.6433 117.62 71.5533 116.267 72.23C114.914 72.9067 113.315 73.245 111.472 73.245ZM142.525 62.92C142.525 63.48 142.49 64.0633 142.42 64.67H128.875C128.969 65.8833 129.354 66.8167 130.03 67.47C130.73 68.1 131.582 68.415 132.585 68.415C134.079 68.415 135.117 67.785 135.7 66.525H142.07C141.744 67.8083 141.149 68.9633 140.285 69.99C139.445 71.0167 138.384 71.8217 137.1 72.405C135.817 72.9883 134.382 73.28 132.795 73.28C130.882 73.28 129.179 72.8717 127.685 72.055C126.192 71.2383 125.025 70.0717 124.185 68.555C123.345 67.0383 122.925 65.265 122.925 63.235C122.925 61.205 123.334 59.4317 124.15 57.915C124.99 56.3983 126.157 55.2317 127.65 54.415C129.144 53.5983 130.859 53.19 132.795 53.19C134.685 53.19 136.365 53.5867 137.835 54.38C139.305 55.1733 140.449 56.305 141.265 57.775C142.105 59.245 142.525 60.96 142.525 62.92ZM136.4 61.345C136.4 60.3183 136.05 59.5017 135.35 58.895C134.65 58.2883 133.775 57.985 132.725 57.985C131.722 57.985 130.87 58.2767 130.17 58.86C129.494 59.4433 129.074 60.2717 128.91 61.345H136.4ZM156.568 67.925V73H153.523C151.353 73 149.661 72.475 148.448 71.425C147.234 70.3517 146.628 68.6133 146.628 66.21V58.44H144.248V53.47H146.628V48.71H152.613V53.47H156.533V58.44H152.613V66.28C152.613 66.8633 152.753 67.2833 153.033 67.54C153.313 67.7967 153.779 67.925 154.433 67.925H156.568ZM170.786 67.925V73H167.741C165.571 73 163.88 72.475 162.666 71.425C161.453 70.3517 160.846 68.6133 160.846 66.21V58.44H158.466V53.47H160.846V48.71H166.831V53.47H170.751V58.44H166.831V66.28C166.831 66.8633 166.971 67.2833 167.251 67.54C167.531 67.7967 167.998 67.925 168.651 67.925H170.786ZM180.105 47.1V73H174.12V47.1H180.105ZM202.852 62.92C202.852 63.48 202.817 64.0633 202.747 64.67H189.202C189.296 65.8833 189.681 66.8167 190.357 67.47C191.057 68.1 191.909 68.415 192.912 68.415C194.406 68.415 195.444 67.785 196.027 66.525H202.397C202.071 67.8083 201.476 68.9633 200.612 69.99C199.772 71.0167 198.711 71.8217 197.427 72.405C196.144 72.9883 194.709 73.28 193.122 73.28C191.209 73.28 189.506 72.8717 188.012 72.055C186.519 71.2383 185.352 70.0717 184.512 68.555C183.672 67.0383 183.252 65.265 183.252 63.235C183.252 61.205 183.661 59.4317 184.477 57.915C185.317 56.3983 186.484 55.2317 187.977 54.415C189.471 53.5983 191.186 53.19 193.122 53.19C195.012 53.19 196.692 53.5867 198.162 54.38C199.632 55.1733 200.776 56.305 201.592 57.775C202.432 59.245 202.852 60.96 202.852 62.92ZM196.727 61.345C196.727 60.3183 196.377 59.5017 195.677 58.895C194.977 58.2883 194.102 57.985 193.052 57.985C192.049 57.985 191.197 58.2767 190.497 58.86C189.821 59.4433 189.401 60.2717 189.237 61.345H196.727Z" fill="white"/>
</svg>
