<svg width="121" height="156" viewBox="0 0 121 156" fill="none" xmlns="http://www.w3.org/2000/svg">
<path d="M54.4561 1.37451L112.713 52.8784L97.7461 69.8078L59.904 36.3523L38.3339 60.7505L76.1761 94.2061L59.4484 113.127L1.19131 61.6233L54.4561 1.37451Z" fill="#FFFCFC"/>
<path d="M54.4561 1.37451L112.713 52.8784L97.7461 69.8078L59.904 36.3523L38.3339 60.7505L76.1761 94.2061L59.4484 113.127L1.19131 61.6233L54.4561 1.37451Z" stroke="#BFBFBF"/>
<path d="M54.4561 1.37451L112.713 52.8784L97.7461 69.8078L59.904 36.3523L38.3339 60.7505L76.1761 94.2061L59.4484 113.127L1.19131 61.6233L54.4561 1.37451Z" stroke="#BFBFBF"/>
<path d="M66.7354 155.054L8.47831 103.55L23.4453 86.6206L61.2874 120.076L82.8575 95.6779L45.0153 62.2224L61.7431 43.3013L120 94.8052L66.7354 155.054Z" fill="#FFFCFC"/>
<path d="M66.7354 155.054L8.47831 103.55L23.4453 86.6206L61.2874 120.076L82.8575 95.6779L45.0153 62.2224L61.7431 43.3013L120 94.8052L66.7354 155.054Z" stroke="#BFBFBF"/>
<path d="M66.7354 155.054L8.47831 103.55L23.4453 86.6206L61.2874 120.076L82.8575 95.6779L45.0153 62.2224L61.7431 43.3013L120 94.8052L66.7354 155.054Z" stroke="#BFBFBF"/>
</svg>
